<?xml version="1.0" standalone="no"?>
<?xml-stylesheet href="bounding_box_equal_earth_greenwich.css" type="text/css"?>
<!DOCTYPE svg PUBLIC "-//W3C//DTD SVG 1.1//EN" "http://www.w3.org/Graphics/SVG/1.1/DTD/svg11.dtd">
<svg width="1000px" height="486.71915671964px" viewBox="0.0 0.0 999.9999999999999 486.71915671964" xmlns="http://www.w3.org/2000/svg" version="1.1">
<g transform="scale(1,-1)">
<g transform="translate(0,-486.71915671964)">
<g class="bounding_box_equal_earth_greenwich">
<g class="WGS84 bounding box" >
<path d="M203.76524741392365 0.0 L203.76524741392365 0.0 L795.4130593618553 0.0 L794.5913262354745 0.0 L793.7695931074478 0.0 L792.9478599794209 0.0 L792.126126851394 0.0 L791.3043937250128 0.0 L790.4826605969865 0.0 L789.6609274689598 0.0 L788.8391943409333 0.0 L788.0174612145521 0.0 L787.1957280865253 0.0 L786.3739949584985 0.0 L785.5522618321179 0.0 L784.7305287040911 0.0 L783.9087955760642 0.0 L783.0870624480375 0.0 L782.2653293216564 0.0 L781.4435961936296 0.0 L780.6218630656031 0.0 L779.8001299392221 0.0 L778.9783968111954 0.0 L778.1566636831686 0.0 L777.3349305551419 0.0 L776.5131974287608 0.0 L775.6914643007342 0.0 L774.8697311727076 0.0 L774.0479980446809 0.0 L773.2262649182999 0.0 L772.404531790273 0.0 L771.5827986622462 0.0 L770.7610655358653 0.0 L769.9393324078387 0.0 L769.1175992798121 0.0 L768.2958661517852 0.0 L767.4741330254043 0.0 L766.6523998973774 0.0 L765.8306667693506 0.0 L765.0089336413239 0.0 L764.1872005149431 0.0 L763.3654673869163 0.0 L762.5437342588896 0.0 L761.7220011325086 0.0 L760.9002680044819 0.0 L760.0785348764551 0.0 L759.2568017484285 0.0 L758.4350686220477 0.0 L757.6133354940207 0.0 L756.791602365994 0.0 L755.969869239613 0.0 L755.1481361115863 0.0 L754.3264029835597 0.0 L753.504669855533 0.0 L752.6829367291517 0.0 L751.861203601125 0.0 L751.0394704730984 0.0 L750.2177373450718 0.0 L749.3960042186908 0.0 L748.574271090664 0.0 L747.7525379626373 0.0 L746.9308048362562 0.0 L746.1090717082296 0.0 L745.2873385802028 0.0 L744.465605452176 0.0 L743.6438723257952 0.0 L742.8221391977685 0.0 L742.0004060697418 0.0 L741.1786729417149 0.0 L740.356939815334 0.0 L739.5352066873072 0.0 L738.7134735592806 0.0 L737.8917404328997 0.0 L737.0700073048729 0.0 L736.248274176846 0.0 L735.4265410488194 0.0 L734.6048079224383 0.0 L733.7830747944117 0.0 L732.961341666385 0.0 L732.139608540004 0.0 L731.3178754119773 0.0 L730.4961422839505 0.0 L729.6744091559237 0.0 L728.852676029543 0.0 L728.0309429015161 0.0 L727.2092097734895 0.0 L726.3874766454628 0.0 L725.5657435190817 0.0 L724.744010391055 0.0 L723.9222772630281 0.0 L723.1005441366473 0.0 L722.2788110086206 0.0 L721.4570778805939 0.0 L720.635344752567 0.0 L719.8136116261861 0.0 L718.9918784981595 0.0 L718.1701453701329 0.0 L717.3484122421061 0.0 L716.5266791157251 0.0 L715.7049459876984 0.0 L714.8832128596715 0.0 L714.0614797332905 0.0 L713.239746605264 0.0 L712.4180134772373 0.0 L711.5962803492105 0.0 L710.7745472228296 0.0 L709.9528140948026 0.0 L709.131080966776 0.0 L708.3093478403952 0.0 L707.4876147123684 0.0 L706.6658815843417 0.0 L705.844148456315 0.0 L705.0224153299338 0.0 L704.2006822019071 0.0 L703.3789490738804 0.0 L702.5572159458538 0.0 L701.7354828194728 0.0 L700.913749691446 0.0 L700.0920165634193 0.0 L699.2702834370382 0.0 L698.4485503090116 0.0 L697.626817180985 0.0 L696.8050840529581 0.0 L695.9833509265771 0.0 L695.1616177985504 0.0 L694.3398846705235 0.0 L693.5181515441425 0.0 L692.696418416116 0.0 L691.8746852880894 0.0 L691.0529521600624 0.0 L690.2312190336816 0.0 L689.4094859056548 0.0 L688.587752777628 0.0 L687.7660196496014 0.0 L686.9442865232205 0.0 L686.1225533951937 0.0 L685.300820267167 0.0 L684.479087140786 0.0 L683.6573540127594 0.0 L682.8356208847327 0.0 L682.0138877567057 0.0 L681.1921546303249 0.0 L680.3704215022981 0.0 L679.5486883742715 0.0 L678.7269552462448 0.0 L677.9052221198638 0.0 L677.0834889918369 0.0 L676.2617558638102 0.0 L675.4400227374292 0.0 L674.6182896094025 0.0 L673.7965564813759 0.0 L672.9748233533492 0.0 L672.1530902269683 0.0 L671.3313570989413 0.0 L670.5096239709148 0.0 L669.6878908445336 0.0 L668.866157716507 0.0 L668.0444245884803 0.0 L667.2226914604537 0.0 L666.4009583340725 0.0 L665.579225206046 0.0 L664.7574920780191 0.0 L663.9357589499924 0.0 L663.1140258236115 0.0 L662.2922926955847 0.0 L661.470559567558 0.0 L660.6488264411771 0.0 L659.8270933131504 0.0 L659.0053601851235 0.0 L658.1836270570968 0.0 L657.361893930716 0.0 L656.5401608026892 0.0 L655.7184276746624 0.0 L654.8966945466358 0.0 L654.0749614202548 0.0 L653.2532282922281 0.0 L652.4314951642012 0.0 L651.6097620378204 0.0 L650.7880289097936 0.0 L649.966295781767 0.0 L649.1445626537403 0.0 L648.3228295273591 0.0 L647.5010963993325 0.0 L646.6793632713056 0.0 L645.8576301449247 0.0 L645.0358970168979 0.0 L644.2141638888713 0.0 L643.3924307608445 0.0 L642.5706976344635 0.0 L641.7489645064368 0.0 L640.9272313784102 0.0 L640.1054982503834 0.0 L639.2837651240025 0.0 L638.4620319959756 0.0 L637.640298867949 0.0 L636.8185657415679 0.0 L635.9968326135412 0.0 L635.1750994855146 0.0 L634.3533663574877 0.0 L633.531633231107 0.0 L632.7099001030799 0.0 L631.8881669750534 0.0 L631.0664338470266 0.0 L630.2447007206457 0.0 L629.422967592619 0.0 L628.6012344645923 0.0 L627.7795013382112 0.0 L626.9577682101847 0.0 L626.1360350821577 0.0 L625.3143019541311 0.0 L624.4925688277501 0.0 L623.6708356997234 0.0 L622.8491025716967 0.0 L622.0273694453158 0.0 L621.2056363172891 0.0 L620.3839031892622 0.0 L619.5621700612356 0.0 L618.7404369348545 0.0 L617.9187038068278 0.0 L617.0969706788012 0.0 L616.2752375507745 0.0 L615.4535044243934 0.0 L614.6317712963668 0.0 L613.8100381683399 0.0 L612.988305041959 0.0 L612.1665719139322 0.0 L611.3448387859057 0.0 L610.5231056578789 0.0 L609.7013725314979 0.0 L608.8796394034711 0.0 L608.0579062754443 0.0 L607.2361731474177 0.0 L606.4144400210367 0.0 L605.5927068930101 0.0 L604.7709737649832 0.0 L603.9492406386024 0.0 L603.1275075105756 0.0 L602.305774382549 0.0 L601.4840412545221 0.0 L600.6623081281413 0.0 L599.8405750001143 0.0 L599.0188418720878 0.0 L598.1971087457067 0.0 L597.37537561768 0.0 L596.5536424896534 0.0 L595.7319093616265 0.0 L594.9101762352457 0.0 L594.088443107219 0.0 L593.2667099791922 0.0 L592.4449768511654 0.0 L591.6232437247845 0.0 L590.8015105967578 0.0 L589.9797774687311 0.0 L589.1580443423499 0.0 L588.3363112143234 0.0 L587.5145780862965 0.0 L586.6928449582698 0.0 L585.8711118318888 0.0 L585.049378703862 0.0 L584.2276455758354 0.0 L583.4059124478086 0.0 L582.5841793214278 0.0 L581.7624461934009 0.0 L580.9407130653743 0.0 L580.1189799389931 0.0 L579.2972468109665 0.0 L578.4755136829398 0.0 L577.6537805549132 0.0 L576.8320474285321 0.0 L576.0103143005055 0.0 L575.1885811724786 0.0 L574.3668480460977 0.0 L573.5451149180709 0.0 L572.7233817900443 0.0 L571.9016486620176 0.0 L571.0799155356367 0.0 L570.2581824076098 0.0 L569.436449279583 0.0 L568.6147161515564 0.0 L567.7929830251754 0.0 L566.9712498971488 0.0 L566.1495167691219 0.0 L565.327783642741 0.0 L564.5060505147142 0.0 L563.6843173866876 0.0 L562.8625842586608 0.0 L562.04085113228 0.0 L561.219118004253 0.0 L560.3973848762265 0.0 L559.5756517481997 0.0 L558.7539186218187 0.0 L557.9321854937921 0.0 L557.1104523657652 0.0 L556.2887192393842 0.0 L555.4669861113576 0.0 L554.6452529833309 0.0 L553.8235198553041 0.0 L553.0017867289232 0.0 L552.1800536008965 0.0 L551.3583204728698 0.0 L550.5365873464887 0.0 L549.714854218462 0.0 L548.8931210904352 0.0 L548.0713879624085 0.0 L547.2496548360276 0.0 L546.4279217080008 0.0 L545.6061885799742 0.0 L544.7844554519475 0.0 L543.9627223255665 0.0 L543.1409891975397 0.0 L542.319256069513 0.0 L541.497522943132 0.0 L540.6757898151053 0.0 L539.8540566870787 0.0 L539.032323559052 0.0 L538.2105904326709 0.0 L537.3888573046441 0.0 L536.5671241766174 0.0 L535.7453910485907 0.0 L534.9236579222096 0.0 L534.101924794183 0.0 L533.2801916661562 0.0 L532.4584585397754 0.0 L531.6367254117484 0.0 L530.8149922837217 0.0 L529.993259155695 0.0 L529.1715260293141 0.0 L528.3497929012874 0.0 L527.5280597732606 0.0 L526.7063266468797 0.0 L525.8845935188529 0.0 L525.0628603908262 0.0 L524.2411272627995 0.0 L523.4193941364185 0.0 L522.5976610083916 0.0 L521.7759278803651 0.0 L520.9541947523383 0.0 L520.1324616259574 0.0 L519.3107284979307 0.0 L518.4889953699039 0.0 L517.6672622435229 0.0 L516.8455291154962 0.0 L516.0237959874696 0.0 L515.2020628594428 0.0 L514.3803297330618 0.0 L513.5585966050351 0.0 L512.7368634770083 0.0 L511.91513034898173 0.0 L511.09339722260074 0.0 L510.2716640945739 0.0 L509.44993096654724 0.0 L508.62819784016625 0.0 L507.80646471213953 0.0 L506.98473158411286 0.0 L506.16299845608614 0.0 L505.34126532970515 0.0 L504.51953220167826 0.0 L503.69779907365177 0.0 L502.8760659472708 0.0 L502.054332819244 0.0 L501.2325996912173 0.0 L500.4108665631906 0.0 L499.5891334368095 0.0 L498.7674003087829 0.0 L497.9456671807561 0.0 L497.1239340527294 0.0 L496.3022009263484 0.0 L495.4804677983217 0.0 L494.658734670295 0.0 L493.8370015439141 0.0 L493.01526841588714 0.0 L492.19353528786047 0.0 L491.3718021598337 0.0 L490.55006903345287 0.0 L489.7283359054261 0.0 L488.90660277739926 0.0 L488.0848696510185 0.0 L487.2631365229916 0.0 L486.44140339496494 0.0 L485.6196702669382 0.0 L484.7979371405572 0.0 L483.97620401253045 0.0 L483.15447088450384 0.0 L482.332737756477 0.0 L481.5110046300961 0.0 L480.68927150206935 0.0 L479.8675383740427 0.0 L479.04580524766175 0.0 L478.224072119635 0.0 L477.4023389916083 0.0 L476.58060586358147 0.0 L475.7588727372005 0.0 L474.9371396091738 0.0 L474.1154064811471 0.0 L473.29367335312025 0.0 L472.4719402267395 0.0 L471.65020709871266 0.0 L470.82847397068593 0.0 L470.00674084430494 0.0 L469.1850077162783 0.0 L468.36327458825156 0.0 L467.54154146022483 0.0 L466.71980833384373 0.0 L465.898075205817 0.0 L465.07634207779034 0.0 L464.2546089514094 0.0 L463.4328758233827 0.0 L462.61114269535597 0.0 L461.78940956732924 0.0 L460.96767644094814 0.0 L460.14594331292164 0.0 L459.32421018489475 0.0 L458.5024770568681 0.0 L457.6807439304871 0.0 L456.8590108024604 0.0 L456.0372776744337 0.0 L455.2155445480528 0.0 L454.3938114200259 0.0 L453.57207829199916 0.0 L452.75034516397244 0.0 L451.92861203759156 0.0 L451.10687890956484 0.0 L450.285145781538 0.0 L449.46341265351145 0.0 L448.64167952713035 0.0 L447.8199463991037 0.0 L446.99821327107696 0.0 L446.176480144696 0.0 L445.35474701666914 0.0 L444.5330138886426 0.0 L443.71128076061575 0.0 L442.8895476342348 0.0 L442.0678145062081 0.0 L441.24608137818143 0.0 L440.42434825180027 0.0 L439.60261512377366 0.0 L438.7808819957468 0.0 L437.9591488677201 0.0 L437.13741574133917 0.0 L436.3156826133125 0.0 L435.4939494852858 0.0 L434.67221635725906 0.0 L433.8504832308782 0.0 L433.0287501028513 0.0 L432.2070169748248 0.0 L431.38528384844363 0.0 L430.56355072041697 0.0 L429.7418175923902 0.0 L428.9200844643635 0.0 L428.0983513379825 0.0 L427.2766182099557 0.0 L426.45488508192904 0.0 L425.6331519539023 0.0 L424.8114188275214 0.0 L423.9896856994947 0.0 L423.167952571468 0.0 L422.3462194450869 0.0 L421.5244863170602 0.0 L420.70275318903344 0.0 L419.8810200610068 0.0 L419.05928693462585 0.0 L418.23755380659907 0.0 L417.4158206785723 0.0 L416.59408755219147 0.0 L415.7723544241646 0.0 L414.9506212961379 0.0 L414.1288881681112 0.0 L413.3071550417302 0.0 L412.48542191370353 0.0 L411.6636887856768 0.0 L410.8419556576501 0.0 L410.02022253126904 0.0 L409.1984894032423 0.0 L408.3767562752156 0.0 L407.55502314883466 0.0 L406.733290020808 0.0 L405.9115568927813 0.0 L405.08982376475444 0.0 L404.2680906383737 0.0 L403.4463575103468 0.0 L402.6246243823201 0.0 L401.80289125429334 0.0 L400.9811581279124 0.0 L400.1594249998856 0.0 L399.33769187185885 0.0 L398.5159587454779 0.0 L397.6942256174512 0.0 L396.8724924894244 0.0 L396.0507593613978 0.0 L395.2290262350169 0.0 L394.40729310699 0.0 L393.5855599789635 0.0 L392.7638268525823 0.0 L391.94209372455566 0.0 L391.12036059652894 0.0 L390.2986274685022 0.0 L389.47689434212117 0.0 L388.6551612140946 0.0 L387.8334280860678 0.0 L387.01169495804106 0.0 L386.18996183166007 0.0 L385.3682287036334 0.0 L384.5464955756066 0.0 L383.7247624492257 0.0 L382.9030293211989 0.0 L382.08129619317214 0.0 L381.25956306514547 0.0 L380.43782993876454 0.0 L379.61609681073776 0.0 L378.7943636827109 0.0 L377.9726305546844 0.0 L377.1508974283033 0.0 L376.32916430027666 0.0 L375.5074311722499 0.0 L374.6856980458689 0.0 L373.8639649178423 0.0 L373.0422317898155 0.0 L372.2204986617889 0.0 L371.39876553540773 0.0 L370.577032407381 0.0 L369.7552992793544 0.0 L368.9335661529734 0.0 L368.11183302494675 0.0 L367.29009989692 0.0 L366.46836676889313 0.0 L365.64663364251237 0.0 L364.8249005144855 0.0 L364.0031673864588 0.0 L363.1814342584321 0.0 L362.3597011320511 0.0 L361.5379680040243 0.0 L360.71623487599754 0.0 L359.8945017496166 0.0 L359.0727686215899 0.0 L358.2510354935631 0.0 L357.4293023655365 0.0 L356.60756923915557 0.0 L355.78583611112873 0.0 L354.9641029831021 0.0 L354.14236985507523 0.0 L353.32063672869435 0.0 L352.49890360066763 0.0 L351.6771704726409 0.0 L350.8554373462598 0.0 L350.03370421823325 0.0 L349.21197109020636 0.0 L348.39023796217964 0.0 L347.56850483579876 0.0 L346.7467717077721 0.0 L345.9250385797454 0.0 L345.10330545336444 0.0 L344.28157232533766 0.0 L343.4598391973109 0.0 L342.6381060692842 0.0 L341.81637294290323 0.0 L340.9946398148765 0.0 L340.1729066868497 0.0 L339.3511735588231 0.0 L338.529440432442 0.0 L337.7077073044154 0.0 L336.88597417638863 0.0 L336.06424105000764 0.0 L335.24250792198103 0.0 L334.42077479395425 0.0 L333.5990416659276 0.0 L332.77730853954637 0.0 L331.9555754115197 0.0 L331.13384228349304 0.0 L330.3121091554663 0.0 L329.4903760290853 0.0 L328.6686429010586 0.0 L327.8469097730318 0.0 L327.02517664665106 0.0 L326.2034435186241 0.0 L325.3817103905975 0.0 L324.5599772625707 0.0 L323.73824413618985 0.0 L322.916511008163 0.0 L322.09477788013623 0.0 L321.2730447537553 0.0 L320.45131162572864 0.0 L319.6295784977019 0.0 L318.80784536967525 0.0 L317.9861122432943 0.0 L317.16437911526737 0.0 L316.34264598724087 0.0 L315.520912859214 0.0 L314.699179732833 0.0 L313.8774466048064 0.0 L313.05571347677966 0.0 L312.2339803503986 0.0 L311.412247222372 0.0 L310.5905140943451 0.0 L309.7687809663185 0.0 L308.9470478399375 0.0 L308.1253147119108 0.0 L307.30358158388407 0.0 L306.48184845585723 0.0 L305.6601153294763 0.0 L304.8383822014496 0.0 L304.0166490734229 0.0 L303.194915947042 0.0 L302.37318281901526 0.0 L301.55144969098836 0.0 L300.7297165629618 0.0 L299.9079834365807 0.0 L299.086250308554 0.0 L298.26451718052726 0.0 L297.4427840541464 0.0 L296.62105092611966 0.0 L295.79931779809294 0.0 L294.9775846700662 0.0 L294.1558515436851 0.0 L293.3341184156584 0.0 L292.51238528763173 0.0 L291.69065215960495 0.0 L290.8689190332241 0.0 L290.0471859051974 0.0 L289.22545277717046 0.0 L288.40371965078964 0.0 L287.58198652276286 0.0 L286.7602533947362 0.0 L285.93852026670925 0.0 L285.11678714032854 0.0 L284.29505401230165 0.0 L283.473320884275 0.0 L282.65158775789405 0.0 L281.82985462986727 0.0 L281.0081215018407 0.0 L280.186388373814 0.0 L279.3646552474328 0.0 L278.5429221194061 0.0 L277.72118899137934 0.0 L276.8994558633527 0.0 L276.0777227369717 0.0 L275.2559896089451 0.0 L274.4342564809183 0.0 L273.6125233545373 0.0 L272.7907902265107 0.0 L271.9690570984838 0.0 L271.1473239704571 0.0 L270.3255908440762 0.0 L269.5038577160494 0.0 L268.6821245880228 0.0 L267.8603914599959 0.0 L267.038658333615 0.0 L266.2169252055883 0.0 L265.39519207756155 0.0 L264.5734589511806 0.0 L263.75172582315395 0.0 L262.9299926951272 0.0 L262.1082595671004 0.0 L261.28652644071946 0.0 L260.4647933126927 0.0 L259.643060184666 0.0 L258.8213270582851 0.0 L257.9995939302583 0.0 L257.1778608022315 0.0 L256.35612767420486 0.0 L255.53439454782392 0.0 L254.71266141979717 0.0 L253.89092829177048 0.0 L253.06919516374376 0.0 L252.24746203736274 0.0 L251.42572890933604 0.0 L250.60399578130935 0.0 L249.7822626549283 0.0 L248.96052952690164 0.0 L248.1387963988749 0.0 L247.31706327084814 0.0 L246.49533014446718 0.0 L245.6735970164404 0.0 L244.8518638884137 0.0 L244.030130760387 0.0 L243.208397634006 0.0 L242.38666450597935 0.0 L241.5649313779526 0.0 L240.7431982515715 0.0 L239.92146512354486 0.0 L239.09973199551806 0.0 L238.27799886749142 0.0 L237.45626574111049 0.0 L236.6345326130838 0.0 L235.81279948505704 0.0 L234.99106635867614 0.0 L234.16933323064927 0.0 L233.34760010262264 0.0 L232.52586697459583 0.0 L231.70413384821487 0.0 L230.88240072018817 0.0 L230.06066759216148 0.0 L229.2389344641348 0.0 L228.41720133775368 0.0 L227.59546820972693 0.0 L226.7737350817003 0.0 L225.9520019553193 0.0 L225.1302688272926 0.0 L224.3085356992658 0.0 L223.48680257123922 0.0 L222.66506944485818 0.0 L221.84333631683143 0.0 L221.02160318880468 0.0 L220.19987006077798 0.0 L219.37813693439708 0.0 L218.55640380637038 0.0 L217.7346706783435 0.0 L216.9129375519625 0.0 L216.0912044239359 0.0 L215.26947129590914 0.0 L214.4477381678824 0.0 L213.62600504150143 0.0 L212.80427191347482 0.0 L211.98253878544807 0.0 L211.160805659067 0.0 L210.33907253104036 0.0 L209.5173394030136 0.0 L208.69560627498691 0.0 L207.87387314860598 0.0 L207.05214002057923 0.0 L206.23040689255237 0.0 L205.40867376452573 0.0 L204.58694063814463 0.0 L796.2347525860763 0.0 L203.73274869271953 0.013826655483894376 L203.63536263553675 0.05529640047872647 L203.47321983864768 0.12437861605047157 L203.24657053206832 0.22102242384054474 L202.9557636121159 0.3451569123075004 L202.60124522300748 0.49669145334828235 L202.18355696055633 0.6755160999663732 L201.7033336926033 0.8815020689833097 L201.16130103474543 1.1145022943972303 L200.5582724742077 1.3743520569471557 L199.89514618431363 1.6608696745814517 L199.66629520212743 1.7599382032106796 L199.17290154556358 1.9738572502090181 L198.39259538134672 2.313101477028282 L197.5553579694978 2.678374479064247 L196.6623888115267 3.0694346993066994 L195.7149522376439 3.4860278063533787 L194.71437282267544 3.9278876356835455 L193.66203069929102 4.394737133276517 L192.5593567371204 4.886289321298403 L191.40782768108912 5.40224825077369 L190.20896121274316 5.942309963698372 L188.96431101627982 6.5061634348062825 L187.67546185684105 7.093491496094935 L186.34402467003684 7.703971751544516 L184.97163175165284 8.33727744837855 L183.55993199078424 8.993078337494376 L182.1105862538018 9.671041480402831 L180.62526285155067 10.370832040337064 L179.1056331988994 11.092114013021426 L177.55336759364303 11.834550937154177 L175.9701312028729 12.597806548841076 L174.35758024165398 13.381545391978333 L172.71735832168517 14.185433400411569 L171.05109305952132 15.009138412738722 L169.3603928512167 15.852330668847936 L167.64684392400576 16.714683237173688 L165.91200756182934 17.595872426370565 L164.1574176150837 18.49557812842274 L162.38457818507422 19.413484149841242 L160.5949615932647 20.349278475936107 L158.79000652388507 21.30265352562221 L156.9711164242971 22.27330635316535 L155.13965812333007 23.26093881626957 L153.29696062425455 24.26525773279892 L151.44431415703846 25.285974978842038 L149.5829693681296 26.322807591636934 L147.71413675743094 27.375477814901483 L145.83898623450244 28.443713154040328 L143.95864690378903 29.52724637663613 L142.07420695282545 30.62581552543502 L140.18671372699953 31.739163892639297 L138.29717394309594 32.867039977929814 L136.40655399311657 34.00919745497839 L134.51578042264225 35.16539509171229 L132.62574045591265 36.33539669606065 L130.737282678704 37.51897101531446 L128.8512177476956 38.71589166462585 L126.96831923785345 39.92593701081352 L125.08932450101267 41.148890086109795 L123.21493562125119 42.384538473373375 L121.34582042036433 43.63267418709779 L119.48261346778165 44.89309357654493 L117.6259171809043 46.165597189420644 L115.77630289233947 47.44998967451128 L113.93431199665652 48.746079643069635 L112.10045705109235 50.05367957119473 L110.27522294288815 51.372605661323725 L108.45906799955995 52.70267774647032 L106.65242515469976 54.043719153711784 L104.85570305118252 55.39555660919439 L103.06928716897855 56.758020118668604 L101.29354093690884 58.13094284994213 L99.52880678967122 59.51416104533845 L97.77540725638356 60.90751389565504 L96.0336459677541 62.3108434611899 L94.30380869288317 63.723994551188426 L92.58616429129847 65.14681465120121 L90.88096569039892 66.57915380835989 L89.18845077940642 68.02086456238246 L87.508843305342 69.47180185132929 L85.84235373519539 70.93182292015406 L84.18918005068927 72.40078726160908 L82.5495085590797 73.87855651638878 L80.92351461635364 75.36499442329671 L79.31136336894954 76.85996672511219 L77.71321040899291 78.36334112491521 L76.1292024477296 79.87498719740715 L74.55947790731014 81.39477634802802 L73.00416751212474 82.92258174469673 L71.46339484760928 84.45827825182467 L69.93727685680001 86.00174239756198 L68.42592435295754 87.5528522972939 L66.92944245345471 89.11148762882434 L65.44793103382457 90.67752956009524 L63.98148510595526 92.25086072888647 L62.530195217483126 93.83136517438106 L61.09414777836004 95.41892832099012 L59.67342540973739 97.01343691338961 L58.2681072259221 98.61477900087387 L56.878269122991455 100.22284389159167 L55.503984045561005 101.83752210807673 L54.14532220567047 103.45870537657089 L52.80235132396145 105.0862865692062 L51.47513680885185 106.72015969939729 L50.163741961907924 108.36021986632534 L48.868228124217104 110.00636325289668 L47.58865484989935 111.65848707224873 L46.325080026058494 113.31648956465759 L45.07756000558974 114.98026996246361 L43.84614972694229 116.64972845567482 L42.63090279747679 118.3247661918428 L41.431871603210105 120.00528522655324 L40.24910736929466 121.6911885282974 L39.08266024997485 123.38237993018872 L37.93257937179294 125.07876413632168 L36.79891290663557 126.78024667454412 L35.681708100421424 128.48673390412782 L34.58101133185305 130.1981329694475 L33.49686813124228 131.9143518053602 L32.429323216540524 133.63529910888948 L31.378420523885723 135.36088431114894 L30.344203212570935 137.09101758423986 L29.326713697849502 138.82560979664746 L28.325993646794217 140.564572524423 L27.342084003993154 142.30781800709806 L26.375024982166355 144.05525915963005 L25.424856082280993 145.806809528762 L24.491616082207326 147.5623833021238 L23.57534304329961 149.32189528260048 L22.676074314939125 151.08526086278653 L21.793846519773957 152.85239603500676 L20.928695565232704 154.62321734853958 L20.080656625742865 156.39764192367824 L19.24976415246432 158.17558740922573 L18.43605185519382 159.95697199704776 L17.6395527110244 161.7417143798042 L16.8602989481177 163.52973376236994 L16.09832204612037 165.3209498377303 L15.353652736150147 167.1152827629142 L14.626320986023414 168.91265317104904 L13.916356008408451 170.71298212960312 L13.223786245794582 172.51619115640003 L12.548639379007037 174.32220217804374 L11.890942313755943 176.13093754629105 L11.250721189689447 177.94231999665072 L10.628001368655802 179.7562726651008 L10.336853506371556 180.62325937136683 L10.122490275445813 181.26970109242527 L10.022807444392141 181.57271904684745 L9.829379933343814 182.1651799552251 L9.768844894460669 182.35183163105182 L9.435163233718747 183.39158300972426 L9.394142239866987 183.52070549186254 L9.370405976754547 183.59555336691068 L8.865091781080668 185.21278877135833 L8.312615363051194 187.03626087637102 L7.777755482236513 188.86192421024666 L7.260532878522099 190.68970395847853 L6.760967523409766 192.5195256243725 L6.279078631742781 194.3513149883408 L5.814884657592006 196.184998125982 L5.368403306317808 198.02050136751603 L4.939651532693361 199.85775131244466 L4.528645548932198 201.69667480755663 L4.135400832382314 203.53719892496298 L3.759932125479397 205.37925097713514 L3.40225344790325 207.22275847667157 L3.062378096554568 209.06764915523988 L2.740318657407619 210.91385092346923 L2.4360870062314732 212.76129189009924 L2.149694319938245 214.60990032198993 L1.881151078370241 216.4596046597531 L1.6304670723536592 218.3103334964189 L1.3976514109735807 220.16201555613355 L1.182712523900349 222.01457971004902 L0.9856581706604091 223.86795493657849 L0.8064954424637506 225.72207034114018 L0.6452307703474737 227.57685511649032 L0.5018699269441478 229.4322385625934 L0.37641803335217155 231.28815004702378 L0.2688795607179088 233.14451902493687 L0.1792583357064632 235.00127499952973 L0.10755754191422603 236.8583475383638 L0.053779723218506464 238.71566625249508 L0.017926785993839546 240.57316077560782 L0.0 242.43076078041898 L0.0 244.28839593922112 L0.017926785993839546 246.14599594403268 L0.053779723218506464 248.00349046714516 L0.10755754191433405 249.8608091812767 L0.1792583357065712 251.71788172011077 L0.2688795607179088 253.57463769470314 L0.37641803335206353 255.43100667261666 L0.5018699269441478 257.28691815704735 L0.6452307703474737 259.1423016031502 L0.8064954424640746 260.99708637850034 L0.9856581706605171 262.8512017830617 L1.1827125239005651 264.7045770095915 L1.3976514109737967 266.5571411635071 L1.6304670723537673 268.4088232232214 L1.8811510783703491 270.2595520598874 L2.1496943199381366 272.1092563976506 L2.436087006231581 273.95786482954134 L2.740318657407835 275.8053057961713 L3.0623780965546765 277.65150756440073 L3.402253447903466 279.4963982429689 L3.759932125479613 281.33990574250555 L4.135400832382422 283.18195779467754 L4.528645548932414 285.0224819120839 L4.939651532693469 286.8614054071958 L5.368403306318024 288.69865535212443 L5.814884657592006 290.5341585936585 L6.279078631743105 292.3678417312997 L6.760967523409766 294.19963109526805 L7.260532878522423 296.02945276116225 L7.777755482236837 297.85723250939384 L8.312615363051087 299.6828958432691 L8.865091781080668 301.50636794828205 L9.43516323371907 303.3275737099164 L10.022807444392248 305.14643767279284 L10.628001368656127 306.96288405453976 L11.250721189689555 308.77683672298934 L11.890942313756161 310.58821917334944 L12.548639379007362 312.3969545415967 L13.223786245794582 314.20296556324 L13.916356008408883 316.0061745900374 L14.62632098602363 317.8065035485915 L15.35365273615031 319.6038739567259 L16.09832204612042 321.39820688191014 L16.860298948117805 323.1894229572702 L17.639552711024724 324.9774423398363 L18.43605185519409 326.7621847225928 L19.24976415246432 328.54356931041434 L20.08065662574335 330.32151479596234 L20.92869556523303 332.09593937110094 L21.793846519774014 333.86676068463333 L22.676074314939342 335.63389585685394 L23.575343043299718 337.3972614370396 L24.491616082207653 339.1567734175167 L25.424856082281206 340.9123471908785 L26.37502498216668 342.66389756001035 L27.342084003993477 344.4113387125424 L28.325993646794647 346.1545841952177 L29.326713697849772 347.89354692299275 L30.344203212571262 349.6281391354006 L31.378420523885993 351.3582724084916 L32.429323216540844 353.0838576107509 L33.49686813124276 354.8048049142805 L34.58101133185364 356.52102375019297 L35.681708100421424 358.2324228155122 L36.79891290663638 359.9389100450969 L37.93257937179337 361.6403925833189 L39.08266024997523 363.33677678945173 L40.249107369295096 365.0279681913431 L41.43187160321053 366.7138714930872 L42.63090279747712 368.39439052779755 L43.84614972694262 370.06942826396556 L45.077560005590065 371.7388867571766 L46.32508002605931 373.4026671549833 L47.58865484989978 375.06066964739176 L48.868228124217424 376.7127934667436 L50.163741961908464 378.35893685331513 L51.475136808852284 379.9989970202431 L52.802351323962 381.6328701504343 L54.14532220567096 383.26045134306963 L55.50398404556127 384.88163461156347 L56.87826912299189 386.4963128280489 L58.2681072259227 388.1043777187666 L59.673425409737604 389.7057198062505 L61.094147778360686 391.3002283986504 L62.53019521748378 392.88779154525946 L63.98148510595531 394.46829599075375 L65.44793103382517 396.04162715954527 L66.92944245345467 397.60766909081565 L68.42592435295799 399.16630442234657 L69.93727685680051 400.71741432207847 L71.46339484760932 402.2608784678155 L73.00416751212522 403.79657497494355 L74.55947790731035 405.32438037161205 L76.12920244773036 406.84416952223336 L77.71321040899356 408.3558155947253 L79.31136336894986 409.85918999452787 L80.92351461635413 411.3541622963437 L82.54950855908062 412.84060020325194 L84.18918005068927 414.318369458031 L85.84235373519614 415.7873337994864 L87.50884330534282 417.2473548683113 L89.18845077940702 418.69829215725787 L90.88096569039958 420.1400029112806 L92.58616429129901 421.5723420684391 L94.30380869288415 422.9951621684521 L96.03364596775485 424.4083132584505 L97.77540725638447 425.8116428239855 L99.52880678967122 427.2049956743016 L101.29354093690954 428.58821386969834 L103.06928716897919 429.9611366009719 L104.85570305118279 431.3236001104458 L106.65242515470034 432.67543756592863 L108.45906799956076 434.01647897317014 L110.27522294288912 435.3465510583168 L112.1004570510931 436.66547714844575 L113.93431199665694 437.9730770765705 L115.77630289233996 439.2691670451289 L117.62591718090493 440.5535595302198 L119.48261346778202 441.8260631430952 L121.34582042036482 443.0864825325424 L123.21493562125167 444.3346182462668 L125.08932450101346 445.57026663353054 L126.96831923785398 446.79321970882665 L128.85121774769596 448.0032650550141 L130.73728267870464 449.20018570432575 L132.6257404559134 450.38376002357967 L134.51578042264273 451.5537616279279 L136.40655399311723 452.7099592646619 L138.29717394309614 453.8521167417102 L140.18671372700055 454.9799928270011 L142.0627731331026 456.0866363459081 L142.07420695282622 456.0933411942053 L143.9586469037895 457.1919103430041 L145.83898623450264 458.2754435655997 L147.7141367574318 459.34367890473885 L149.58296936812997 460.3963491280032 L151.44431415703886 461.43318174079815 L153.29696062425535 462.45389898684147 L155.13965812333072 463.45821790337055 L156.69346576252605 464.29679268634925 L156.97111642429823 464.4458503664752 L158.79000652388507 465.41650319401776 L160.5949615932652 466.36987824370397 L162.3845781850746 467.30567256979884 L163.9428219607689 468.11294588874756 L164.15741761508394 468.22357859121723 L165.8610496573139 469.0972755876821 L165.91200756182965 469.1232842932695 L167.64684392400684 470.0044734824668 L169.3603928512172 470.86682605079227 L171.05109305952183 471.7100183069015 L172.71735832168554 472.53372331922856 L174.35758024165452 473.33761132766176 L175.9701312028735 474.12135017079913 L177.5533675936432 474.88460578248583 L179.10563319889945 475.6270427066184 L180.62526285155116 476.348324679303 L182.11058625380204 477.0481152392371 L183.55993199078418 477.7260783821455 L184.9716317516533 478.38187927126154 L186.3440246700368 479.01518496809535 L187.67546185684148 479.6256652235452 L188.9643110162803 480.21299328483383 L190.20896121274387 480.77684675594173 L191.4078276810894 481.3169084688663 L192.5593567371209 481.83286739834165 L193.66203069929156 482.32441958636355 L194.71437282267607 482.7912690839566 L195.71495223764407 483.2331289132867 L196.66238881152665 483.6497220203331 L197.55535796949826 484.04078224057577 L198.39259538134766 484.406055242612 L199.17290154556412 484.7452994694311 L199.8951461843142 485.05828704505865 L200.55827247420814 485.344804662693 L201.16130103474538 485.6046544252427 L201.70333369260337 485.8376546506566 L202.18355696055667 486.0436406196735 L202.60124522300742 486.2224652662917 L202.95576361211556 486.3739998073324 L203.24657053206803 486.49813429579933 L203.47321983864822 486.5947781035896 L203.63536263553638 486.66386031916113 L203.73274869271987 486.70533006415616 L796.2347525860761 486.71915671964 L204.58694063814494 486.71915671964 L205.40867376452596 486.71915671964 L206.2304068925527 486.71915671964 L207.05214002057943 486.71915671964 L207.87387314860618 486.71915671964 L208.69560627498717 486.71915671964 L209.51733940301386 486.71915671964 L210.33907253104059 486.71915671964 L211.16080565906728 486.71915671964 L211.9825387854483 486.71915671964 L212.8042719134751 486.71915671964 L213.62600504150168 486.71915671964 L214.44773816788268 486.71915671964 L215.26947129590943 486.71915671964 L216.09120442393612 486.71915671964 L216.91293755196276 486.71915671964 L217.7346706783438 486.71915671964 L218.55640380637067 486.71915671964 L219.37813693439736 486.71915671964 L220.19987006077832 486.71915671964 L221.02160318880502 486.71915671964 L221.8433363168317 486.71915671964 L222.66506944485846 486.71915671964 L223.4868025712395 486.71915671964 L224.30853569926614 486.71915671964 L225.1302688272929 486.71915671964 L225.95200195531964 486.71915671964 L226.77373508170058 486.71915671964 L227.59546820972727 486.71915671964 L228.41720133775402 486.71915671964 L229.2389344641351 486.71915671964 L230.06066759216174 486.71915671964 L230.88240072018843 486.71915671964 L231.70413384821518 486.71915671964 L232.52586697459614 486.71915671964 L233.3476001026228 486.71915671964 L234.1693332306495 486.71915671964 L234.99106635867636 486.71915671964 L235.81279948505733 486.71915671964 L236.63453261308408 486.71915671964 L237.45626574111077 486.71915671964 L238.27799886749165 486.71915671964 L239.09973199551834 486.71915671964 L239.92146512354515 486.71915671964 L240.74319825157173 486.71915671964 L241.56493137795283 486.71915671964 L242.38666450597958 486.71915671964 L243.20839763400627 486.71915671964 L244.03013076038727 486.71915671964 L244.8518638884139 486.71915671964 L245.67359701644065 486.71915671964 L246.49533014446746 486.71915671964 L247.31706327084842 486.71915671964 L248.13879639887517 486.71915671964 L248.9605295269019 486.71915671964 L249.7822626549286 486.71915671964 L250.6039957813095 486.71915671964 L251.42572890933636 486.71915671964 L252.24746203736296 486.71915671964 L253.06919516374398 486.71915671964 L253.89092829177073 486.71915671964 L254.71266141979737 486.71915671964 L255.53439454782406 486.71915671964 L256.3561276742051 486.71915671964 L257.1778608022318 486.71915671964 L257.9995939302586 486.71915671964 L258.8213270582853 486.71915671964 L259.6430601846663 486.71915671964 L260.46479331269296 486.71915671964 L261.28652644071974 486.71915671964 L262.1082595671007 486.71915671964 L262.92999269512745 486.71915671964 L263.7517258231542 486.71915671964 L264.57345895118084 486.71915671964 L265.3951920775617 486.71915671964 L266.21692520558855 486.71915671964 L267.03865833361516 486.71915671964 L267.86039145999615 486.71915671964 L268.68212458802304 486.71915671964 L269.50385771604965 486.71915671964 L270.32559084407643 486.71915671964 L271.14732397045736 486.71915671964 L271.96905709848403 486.71915671964 L272.790790226511 486.71915671964 L273.61252335453753 486.71915671964 L274.4342564809186 486.71915671964 L275.2559896089453 486.71915671964 L276.0777227369719 486.71915671964 L276.89945586335284 486.71915671964 L277.72118899137956 486.71915671964 L278.5429221194063 486.71915671964 L279.364655247433 486.71915671964 L280.1863883738141 486.71915671964 L281.0081215018409 486.71915671964 L281.8298546298675 486.71915671964 L282.6515877578942 486.71915671964 L283.4733208842752 486.71915671964 L284.2950540123019 486.71915671964 L285.1167871403288 486.71915671964 L285.93852026670953 486.71915671964 L286.7602533947364 486.71915671964 L287.5819865227631 486.71915671964 L288.4037196507898 486.71915671964 L289.22545277717074 486.71915671964 L290.0471859051976 486.71915671964 L290.8689190332243 486.71915671964 L291.6906521596052 486.71915671964 L292.51238528763196 486.71915671964 L293.3341184156587 486.71915671964 L294.15585154368534 486.71915671964 L294.97758467006645 486.71915671964 L295.79931779809317 486.71915671964 L296.6210509261199 486.71915671964 L297.44278405414656 486.71915671964 L298.26451718052743 486.71915671964 L299.0862503085542 486.71915671964 L299.90798343658093 486.71915671964 L300.72971656296204 486.71915671964 L301.55144969098853 486.71915671964 L302.3731828190154 486.71915671964 L303.1949159470422 486.71915671964 L304.016649073423 486.71915671964 L304.8383822014498 486.71915671964 L305.66011532947647 486.71915671964 L306.48184845585746 486.71915671964 L307.3035815838843 486.71915671964 L308.12531471191096 486.71915671964 L308.9470478399377 486.71915671964 L309.7687809663186 486.71915671964 L310.59051409434534 486.71915671964 L311.41224722237223 486.71915671964 L312.2339803503987 486.71915671964 L313.05571347677983 486.71915671964 L313.87744660480655 486.71915671964 L314.6991797328332 486.71915671964 L315.5209128592142 486.71915671964 L316.34264598724104 486.71915671964 L317.1643791152676 486.71915671964 L317.9861122432945 486.71915671964 L318.8078453696755 486.71915671964 L319.6295784977021 486.71915671964 L320.45131162572886 486.71915671964 L321.27304475375547 486.71915671964 L322.0947778801364 486.71915671964 L322.9165110081631 486.71915671964 L323.73824413618996 486.71915671964 L324.55997726257095 486.71915671964 L325.3817103905976 486.71915671964 L326.20344351862434 486.71915671964 L327.0251766466512 486.71915671964 L327.84690977303194 486.71915671964 L328.66864290105883 486.71915671964 L329.4903760290855 486.71915671964 L330.31210915546643 486.71915671964 L331.13384228349315 486.71915671964 L331.95557541151993 486.71915671964 L332.7773085395466 486.71915671964 L333.59904166592776 486.71915671964 L334.42077479395437 486.71915671964 L335.2425079219811 486.71915671964 L336.06424105000775 486.71915671964 L336.8859741763888 486.71915671964 L337.7077073044155 486.71915671964 L338.52944043244224 486.71915671964 L339.35117355882323 486.71915671964 L340.1729066868498 486.71915671964 L340.9946398148766 486.71915671964 L341.8163729429034 486.71915671964 L342.63810606928433 486.71915671964 L343.45983919731106 486.71915671964 L344.2815723253378 486.71915671964 L345.1033054533646 486.71915671964 L345.92503857974555 486.71915671964 L346.7467717077722 486.71915671964 L347.56850483579893 486.71915671964 L348.39023796217987 486.71915671964 L349.2119710902066 486.71915671964 L350.0337042182334 486.71915671964 L350.8554373462599 486.71915671964 L351.6771704726411 486.71915671964 L352.4989036006678 486.71915671964 L353.32063672869447 486.71915671964 L354.1423698550754 486.71915671964 L354.96410298310224 486.71915671964 L355.78583611112884 486.71915671964 L356.60756923915574 486.71915671964 L357.42930236553667 486.71915671964 L358.2510354935633 486.71915671964 L359.07276862159 486.71915671964 L359.8945017496167 486.71915671964 L360.71623487599777 486.71915671964 L361.53796800402444 486.71915671964 L362.3597011320512 486.71915671964 L363.18143425843226 486.71915671964 L364.0031673864589 486.71915671964 L364.82490051448565 486.71915671964 L365.6466336425125 486.71915671964 L366.46836676889325 486.71915671964 L367.29009989692014 486.71915671964 L368.11183302494686 486.71915671964 L368.9335661529735 486.71915671964 L369.7552992793545 486.71915671964 L370.5770324073811 486.71915671964 L371.3987655354079 486.71915671964 L372.220498661789 486.71915671964 L373.0422317898157 486.71915671964 L373.8639649178424 486.71915671964 L374.685698045869 486.71915671964 L375.50743117225005 486.71915671964 L376.3291643002768 486.71915671964 L377.1508974283035 486.71915671964 L377.9726305546845 486.71915671964 L378.7943636827111 486.71915671964 L379.61609681073793 486.71915671964 L380.43782993876465 486.71915671964 L381.2595630651456 486.71915671964 L382.08129619317225 486.71915671964 L382.903029321199 486.71915671964 L383.7247624492258 486.71915671964 L384.54649557560674 486.71915671964 L385.3682287036335 486.71915671964 L386.1899618316602 486.71915671964 L387.0116949580412 486.71915671964 L387.83342808606784 486.71915671964 L388.6551612140947 486.71915671964 L389.47689434212134 486.71915671964 L390.29862746850233 486.71915671964 L391.1203605965291 486.71915671964 L391.9420937245558 486.71915671964 L392.76382685258244 486.71915671964 L393.5855599789636 486.71915671964 L394.4072931069901 486.71915671964 L395.229026235017 486.71915671964 L396.0507593613979 486.71915671964 L396.87249248942453 486.71915671964 L397.6942256174513 486.71915671964 L398.51595874547803 486.71915671964 L399.33769187185896 486.71915671964 L400.1594249998857 486.71915671964 L400.9811581279125 486.71915671964 L401.80289125429346 486.71915671964 L402.62462438232023 486.71915671964 L403.4463575103469 486.71915671964 L404.26809063837374 486.71915671964 L405.08982376475456 486.71915671964 L405.9115568927814 486.71915671964 L406.7332900208081 486.71915671964 L407.5550231488348 486.71915671964 L408.3767562752157 486.71915671964 L409.1984894032424 486.71915671964 L410.0202225312691 486.71915671964 L410.8419556576502 486.71915671964 L411.66368878567687 486.71915671964 L412.48542191370365 486.71915671964 L413.3071550417303 486.71915671964 L414.1288881681113 486.71915671964 L414.95062129613797 486.71915671964 L415.7723544241647 486.71915671964 L416.5940875521915 486.71915671964 L417.41582067857235 486.71915671964 L418.2375538065992 486.71915671964 L419.05928693462596 486.71915671964 L419.8810200610069 486.71915671964 L420.70275318903356 486.71915671964 L421.5244863170603 486.71915671964 L422.34621944508694 486.71915671964 L423.16795257146805 486.71915671964 L423.9896856994948 486.71915671964 L424.81141882752144 486.71915671964 L425.63315195390237 486.71915671964 L426.4548850819291 486.71915671964 L427.2766182099558 486.71915671964 L428.09835133798254 486.71915671964 L428.9200844643636 486.71915671964 L429.7418175923903 486.71915671964 L430.56355072041697 486.71915671964 L431.3852838484437 486.71915671964 L432.20701697482485 486.71915671964 L433.02875010285135 486.71915671964 L433.85048323087824 486.71915671964 L434.6722163572591 486.71915671964 L435.49394948528584 486.71915671964 L436.31568261331256 486.71915671964 L437.1374157413392 486.71915671964 L437.95914886772016 486.71915671964 L438.78088199574694 486.71915671964 L439.6026151237737 486.71915671964 L440.4243482518003 486.71915671964 L441.2460813781815 486.71915671964 L442.06781450620815 486.71915671964 L442.8895476342349 486.71915671964 L443.7112807606158 486.71915671964 L444.53301388864264 486.71915671964 L445.3547470166692 486.71915671964 L446.17648014469603 486.71915671964 L446.998213271077 486.71915671964 L447.81994639910374 486.71915671964 L448.6416795271304 486.71915671964 L449.4634126535115 486.71915671964 L450.28514578153806 486.71915671964 L451.1068789095649 486.71915671964 L451.92861203759156 486.71915671964 L452.7503451639725 486.71915671964 L453.5720782919992 486.71915671964 L454.39381142002594 486.71915671964 L455.21554454805283 486.71915671964 L456.03727767443377 486.71915671964 L456.85901080246043 486.71915671964 L457.68074393048715 486.71915671964 L458.5024770568681 486.71915671964 L459.3242101848948 486.71915671964 L460.14594331292164 486.71915671964 L460.9676764409482 486.71915671964 L461.7894095673293 486.71915671964 L462.611142695356 486.71915671964 L463.4328758233827 486.71915671964 L464.2546089514094 486.71915671964 L465.07634207779034 486.71915671964 L465.898075205817 486.71915671964 L466.71980833384373 486.71915671964 L467.5415414602249 486.71915671964 L468.36327458825156 486.71915671964 L469.1850077162783 486.71915671964 L470.00674084430494 486.71915671964 L470.828473970686 486.71915671964 L471.65020709871266 486.71915671964 L472.47194022673955 486.71915671964 L473.29367335312025 486.71915671964 L474.1154064811471 486.71915671964 L474.9371396091738 486.71915671964 L475.7588727372005 486.71915671964 L476.58060586358147 486.71915671964 L477.40233899160836 486.71915671964 L478.224072119635 486.71915671964 L479.04580524766175 486.71915671964 L479.86753837404274 486.71915671964 L480.6892715020694 486.71915671964 L481.5110046300961 486.71915671964 L482.33273775647706 486.71915671964 L483.15447088450384 486.71915671964 L483.97620401253045 486.71915671964 L484.7979371405573 486.71915671964 L485.6196702669382 486.71915671964 L486.44140339496494 486.71915671964 L487.2631365229916 486.71915671964 L488.0848696510185 486.71915671964 L488.90660277739937 486.71915671964 L489.7283359054261 486.71915671964 L490.55006903345287 486.71915671964 L491.3718021598337 486.71915671964 L492.19353528786047 486.71915671964 L493.01526841588714 486.71915671964 L493.8370015439141 486.71915671964 L494.658734670295 486.71915671964 L495.4804677983217 486.71915671964 L496.3022009263484 486.71915671964 L497.1239340527294 486.71915671964 L497.9456671807561 486.71915671964 L498.7674003087829 486.71915671964 L499.5891334368095 486.71915671964 L500.4108665631906 486.71915671964 L501.2325996912173 486.71915671964 L502.054332819244 486.71915671964 L502.8760659472708 486.71915671964 L503.69779907365177 486.71915671964 L504.51953220167826 486.71915671964 L505.34126532970515 486.71915671964 L506.16299845608614 486.71915671964 L506.98473158411286 486.71915671964 L507.80646471213953 486.71915671964 L508.62819784016625 486.71915671964 L509.44993096654724 486.71915671964 L510.2716640945739 486.71915671964 L511.09339722260074 486.71915671964 L511.9151303489816 486.71915671964 L512.7368634770083 486.71915671964 L513.5585966050351 486.71915671964 L514.3803297330618 486.71915671964 L515.2020628594428 486.71915671964 L516.0237959874696 486.71915671964 L516.8455291154962 486.71915671964 L517.6672622435229 486.71915671964 L518.4889953699039 486.71915671964 L519.3107284979307 486.71915671964 L520.1324616259574 486.71915671964 L520.9541947523383 486.71915671964 L521.7759278803651 486.71915671964 L522.5976610083916 486.71915671964 L523.4193941364185 486.71915671964 L524.2411272627995 486.71915671964 L525.0628603908261 486.71915671964 L525.8845935188529 486.71915671964 L526.7063266468797 486.71915671964 L527.5280597732605 486.71915671964 L528.3497929012874 486.71915671964 L529.1715260293141 486.71915671964 L529.993259155695 486.71915671964 L530.8149922837217 486.71915671964 L531.6367254117483 486.71915671964 L532.4584585397754 486.71915671964 L533.2801916661562 486.71915671964 L534.101924794183 486.71915671964 L534.9236579222096 486.71915671964 L535.7453910485907 486.71915671964 L536.5671241766173 486.71915671964 L537.3888573046441 486.71915671964 L538.2105904326709 486.71915671964 L539.032323559052 486.71915671964 L539.8540566870786 486.71915671964 L540.6757898151053 486.71915671964 L541.4975229431319 486.71915671964 L542.319256069513 486.71915671964 L543.1409891975396 486.71915671964 L543.9627223255665 486.71915671964 L544.7844554519475 486.71915671964 L545.6061885799742 486.71915671964 L546.4279217080008 486.71915671964 L547.2496548360276 486.71915671964 L548.0713879624085 486.71915671964 L548.8931210904352 486.71915671964 L549.714854218462 486.71915671964 L550.5365873464887 486.71915671964 L551.3583204728697 486.71915671964 L552.1800536008964 486.71915671964 L553.0017867289231 486.71915671964 L553.8235198553041 486.71915671964 L554.6452529833308 486.71915671964 L555.4669861113576 486.71915671964 L556.2887192393842 486.71915671964 L557.1104523657651 486.71915671964 L557.932185493792 486.71915671964 L558.7539186218186 486.71915671964 L559.5756517481996 486.71915671964 L560.3973848762264 486.71915671964 L561.2191180042529 486.71915671964 L562.0408511322798 486.71915671964 L562.8625842586608 486.71915671964 L563.6843173866876 486.71915671964 L564.5060505147142 486.71915671964 L565.3277836427409 486.71915671964 L566.1495167691218 486.71915671964 L566.9712498971487 486.71915671964 L567.7929830251753 486.71915671964 L568.6147161515563 486.71915671964 L569.4364492795829 486.71915671964 L570.2581824076098 486.71915671964 L571.0799155356366 486.71915671964 L571.9016486620175 486.71915671964 L572.7233817900443 486.71915671964 L573.5451149180709 486.71915671964 L574.3668480460976 486.71915671964 L575.1885811724785 486.71915671964 L576.0103143005053 486.71915671964 L576.832047428532 486.71915671964 L577.6537805549132 486.71915671964 L578.4755136829398 486.71915671964 L579.2972468109664 486.71915671964 L580.1189799389931 486.71915671964 L580.9407130653742 486.71915671964 L581.7624461934008 486.71915671964 L582.5841793214277 486.71915671964 L583.4059124478085 486.71915671964 L584.2276455758353 486.71915671964 L585.0493787038619 486.71915671964 L585.8711118318887 486.71915671964 L586.6928449582697 486.71915671964 L587.5145780862964 486.71915671964 L588.3363112143232 486.71915671964 L589.1580443423499 486.71915671964 L589.979777468731 486.71915671964 L590.8015105967577 486.71915671964 L591.6232437247844 486.71915671964 L592.4449768511654 486.71915671964 L593.2667099791922 486.71915671964 L594.088443107219 486.71915671964 L594.9101762352457 486.71915671964 L595.7319093616264 486.71915671964 L596.5536424896533 486.71915671964 L597.3753756176799 486.71915671964 L598.1971087457066 486.71915671964 L599.0188418720877 486.71915671964 L599.8405750001142 486.71915671964 L600.6623081281411 486.71915671964 L601.484041254522 486.71915671964 L602.3057743825487 486.71915671964 L603.1275075105755 486.71915671964 L603.9492406386023 486.71915671964 L604.7709737649831 486.71915671964 L605.59270689301 486.71915671964 L606.4144400210366 486.71915671964 L607.2361731474176 486.71915671964 L608.0579062754442 486.71915671964 L608.879639403471 486.71915671964 L609.7013725314978 486.71915671964 L610.5231056578789 486.71915671964 L611.3448387859056 486.71915671964 L612.1665719139322 486.71915671964 L612.9883050419589 486.71915671964 L613.8100381683398 486.71915671964 L614.6317712963668 486.71915671964 L615.4535044243933 486.71915671964 L616.2752375507744 486.71915671964 L617.0969706788011 486.71915671964 L617.9187038068277 486.71915671964 L618.7404369348545 486.71915671964 L619.5621700612355 486.71915671964 L620.3839031892621 486.71915671964 L621.205636317289 486.71915671964 L622.0273694453157 486.71915671964 L622.8491025716966 486.71915671964 L623.6708356997232 486.71915671964 L624.49256882775 486.71915671964 L625.314301954131 486.71915671964 L626.1360350821577 486.71915671964 L626.9577682101844 486.71915671964 L627.779501338211 486.71915671964 L628.6012344645922 486.71915671964 L629.4229675926189 486.71915671964 L630.2447007206456 486.71915671964 L631.0664338470265 486.71915671964 L631.8881669750533 486.71915671964 L632.7099001030798 486.71915671964 L633.5316332311068 486.71915671964 L634.3533663574877 486.71915671964 L635.1750994855145 486.71915671964 L635.996832613541 486.71915671964 L636.8185657415677 486.71915671964 L637.6402988679489 486.71915671964 L638.4620319959755 486.71915671964 L639.2837651240023 486.71915671964 L640.1054982503833 486.71915671964 L640.9272313784099 486.71915671964 L641.7489645064367 486.71915671964 L642.5706976344634 486.71915671964 L643.3924307608444 486.71915671964 L644.2141638888713 486.71915671964 L645.0358970168979 486.71915671964 L645.8576301449247 486.71915671964 L646.6793632713055 486.71915671964 L647.5010963993323 486.71915671964 L648.322829527359 486.71915671964 L649.1445626537401 486.71915671964 L649.9662957817668 486.71915671964 L650.7880289097935 486.71915671964 L651.6097620378202 486.71915671964 L652.4314951642011 486.71915671964 L653.2532282922278 486.71915671964 L654.0749614202546 486.71915671964 L654.8966945466357 486.71915671964 L655.7184276746623 486.71915671964 L656.540160802689 486.71915671964 L657.3618939307158 486.71915671964 L658.1836270570967 486.71915671964 L659.0053601851234 486.71915671964 L659.8270933131503 486.71915671964 L660.648826441177 486.71915671964 L661.4705595675579 486.71915671964 L662.2922926955845 486.71915671964 L663.1140258236113 486.71915671964 L663.9357589499923 486.71915671964 L664.7574920780189 486.71915671964 L665.5792252060457 486.71915671964 L666.4009583340722 486.71915671964 L667.2226914604535 486.71915671964 L668.0444245884802 486.71915671964 L668.8661577165069 486.71915671964 L669.6878908445335 486.71915671964 L670.5096239709146 486.71915671964 L671.3313570989411 486.71915671964 L672.1530902269681 486.71915671964 L672.974823353349 486.71915671964 L673.7965564813758 486.71915671964 L674.6182896094023 486.71915671964 L675.4400227374291 486.71915671964 L676.26175586381 486.71915671964 L677.0834889918368 486.71915671964 L677.9052221198637 486.71915671964 L678.7269552462445 486.71915671964 L679.5486883742713 486.71915671964 L680.370421502298 486.71915671964 L681.1921546303248 486.71915671964 L682.0138877567056 486.71915671964 L682.8356208847325 486.71915671964 L683.6573540127591 486.71915671964 L684.4790871407857 486.71915671964 L685.3008202671667 486.71915671964 L686.1225533951934 486.71915671964 L686.9442865232204 486.71915671964 L687.7660196496012 486.71915671964 L688.5877527776279 486.71915671964 L689.4094859056546 486.71915671964 L690.2312190336814 486.71915671964 L691.0529521600622 486.71915671964 L691.8746852880893 486.71915671964 L692.6964184161158 486.71915671964 L693.5181515441424 486.71915671964 L694.3398846705235 486.71915671964 L695.1616177985502 486.71915671964 L695.9833509265769 486.71915671964 L696.805084052958 486.71915671964 L697.6268171809849 486.71915671964 L698.4485503090115 486.71915671964 L699.2702834370381 486.71915671964 L700.0920165634192 486.71915671964 L700.9137496914458 486.71915671964 L701.7354828194726 486.71915671964 L702.5572159458537 486.71915671964 L703.3789490738802 486.71915671964 L704.2006822019068 486.71915671964 L705.0224153299337 486.71915671964 L705.8441484563148 486.71915671964 L706.6658815843415 486.71915671964 L707.4876147123681 486.71915671964 L708.3093478403949 486.71915671964 L709.1310809667757 486.71915671964 L709.9528140948024 486.71915671964 L710.7745472228293 486.71915671964 L711.5962803492102 486.71915671964 L712.4180134772371 486.71915671964 L713.2397466052638 486.71915671964 L714.0614797332903 486.71915671964 L714.8832128596713 486.71915671964 L715.7049459876981 486.71915671964 L716.5266791157248 486.71915671964 L717.3484122421058 486.71915671964 L718.1701453701327 486.71915671964 L718.9918784981593 486.71915671964 L719.813611626186 486.71915671964 L720.6353447525669 486.71915671964 L721.4570778805938 486.71915671964 L722.2788110086203 486.71915671964 L723.100544136647 486.71915671964 L723.9222772630278 486.71915671964 L724.7440103910548 486.71915671964 L725.5657435190815 486.71915671964 L726.3874766454626 486.71915671964 L727.2092097734893 486.71915671964 L728.0309429015159 486.71915671964 L728.8526760295429 486.71915671964 L729.6744091559235 486.71915671964 L730.4961422839502 486.71915671964 L731.3178754119771 486.71915671964 L732.1396085400038 486.71915671964 L732.9613416663848 486.71915671964 L733.7830747944114 486.71915671964 L734.6048079224381 486.71915671964 L735.4265410488192 486.71915671964 L736.2482741768458 486.71915671964 L737.0700073048725 486.71915671964 L737.8917404328994 486.71915671964 L738.7134735592803 486.71915671964 L739.535206687307 486.71915671964 L740.3569398153338 486.71915671964 L741.1786729417147 486.71915671964 L742.0004060697414 486.71915671964 L742.8221391977683 486.71915671964 L743.643872325795 486.71915671964 L744.4656054521757 486.71915671964 L745.2873385802026 486.71915671964 L746.1090717082293 486.71915671964 L746.930804836256 486.71915671964 L747.752537962637 486.71915671964 L748.5742710906637 486.71915671964 L749.3960042186906 486.71915671964 L750.2177373450714 486.71915671964 L751.0394704730983 486.71915671964 L751.8612036011249 486.71915671964 L752.6829367291516 486.71915671964 L753.5046698555327 486.71915671964 L754.3264029835594 486.71915671964 L755.1481361115859 486.71915671964 L755.9698692396126 486.71915671964 L756.7916023659936 486.71915671964 L757.6133354940204 486.71915671964 L758.4350686220474 486.71915671964 L759.2568017484283 486.71915671964 L760.0785348764548 486.71915671964 L760.9002680044815 486.71915671964 L761.7220011325084 486.71915671964 L762.5437342588893 486.71915671964 L763.3654673869161 486.71915671964 L764.1872005149429 486.71915671964 L765.0089336413237 486.71915671964 L765.8306667693504 486.71915671964 L766.6523998973771 486.71915671964 L767.4741330254038 486.71915671964 L768.2958661517848 486.71915671964 L769.1175992798118 486.71915671964 L769.9393324078384 486.71915671964 L770.7610655358649 486.71915671964 L771.5827986622459 486.71915671964 L772.4045317902728 486.71915671964 L773.2262649182995 486.71915671964 L774.0479980446806 486.71915671964 L774.8697311727074 486.71915671964 L775.6914643007339 486.71915671964 L776.5131974287605 486.71915671964 L777.3349305551416 486.71915671964 L778.1566636831684 486.71915671964 L778.9783968111951 486.71915671964 L779.8001299392218 486.71915671964 L780.6218630656027 486.71915671964 L781.4435961936293 486.71915671964 L782.2653293216562 486.71915671964 L783.0870624480373 486.71915671964 L783.9087955760639 486.71915671964 L784.7305287040908 486.71915671964 L785.5522618321176 486.71915671964 L786.3739949584983 486.71915671964 L787.195728086525 486.71915671964 L788.0174612145519 486.71915671964 L788.839194340933 486.71915671964 L789.6609274689596 486.71915671964 L790.4826605969863 486.71915671964 L791.3043937250127 486.71915671964 L792.1261268513938 486.71915671964 L792.9478599794206 486.71915671964 L793.7695931074475 486.71915671964 L794.5913262354743 486.71915671964 L795.4130593618551 486.71915671964 L203.76524741392384 486.71915671964 L796.2672513072802 486.70533006415616 L796.3646373644636 486.66386031916113 L796.5267801613519 486.5947781035896 L796.7534294679319 486.49813429579933 L797.0442363878844 486.3739998073324 L797.3987547769926 486.2224652662917 L797.8164430394434 486.0436406196735 L798.2966663073968 485.8376546506566 L798.8386989652547 485.6046544252427 L799.4417275257921 485.344804662693 L800.1048538156858 485.05828704505865 L800.8270984544358 484.7452994694311 L801.6074046186524 484.406055242612 L802.4446420305018 484.04078224057577 L803.3376111884734 483.6497220203331 L804.2850477623559 483.2331289132867 L805.2856271773239 482.7912690839566 L806.3379693007086 482.32441958636355 L807.4406432628791 481.83286739834165 L808.5921723189107 481.3169084688663 L809.791038787256 480.77684675594173 L811.0356889837196 480.21299328483383 L812.3245381431587 479.6256652235452 L813.6559753299633 479.01518496809535 L815.0283682483467 478.38187927126154 L816.4400680092159 477.7260783821455 L817.8894137461981 477.0481152392371 L819.3747371484488 476.348324679303 L820.8943668011005 475.6270427066184 L822.4466324063569 474.88460578248583 L824.0298687971266 474.12135017079913 L825.6424197583456 473.33761132766176 L827.2826416783146 472.53372331922856 L828.9489069404783 471.7100183069015 L830.6396071487829 470.86682605079227 L832.3531560759933 470.0044734824668 L834.0879924381704 469.1232842932695 L834.1398897944803 469.0967960277661 L835.8425823849161 468.22357859121723 L836.0557167197675 468.11369969886476 L837.6154218149255 467.30567256979884 L839.4050384067349 466.36987824370397 L841.209993476115 465.41650319401776 L843.0288835757019 464.4458503664752 L843.3113698631496 464.2941945613494 L844.8603418766695 463.45821790337055 L846.7030393757448 462.45389898684147 L848.5556858429613 461.43318174079815 L850.41703063187 460.3963491280032 L852.2858632425683 459.34367890473885 L854.1610137654974 458.2754435655997 L856.0413530962106 457.1919103430041 L857.925793047174 456.0933411942053 L857.9373780348046 456.08654769710387 L859.8132862729996 454.9799928270011 L861.702826056904 453.8521167417102 L863.5934460068828 452.7099592646619 L865.4842195773574 451.5537616279279 L867.3742595440867 450.38376002357967 L869.2627173212956 449.20018570432575 L871.1487822523042 448.0032650550141 L873.031680762146 446.79321970882665 L874.9106754989865 445.57026663353054 L876.7850643787485 444.3346182462668 L878.6541795796352 443.0864825325424 L880.5173865322182 441.8260631430952 L882.3740828190954 440.5535595302198 L884.2236971076601 439.2691670451289 L886.0656880033432 437.9730770765705 L887.8995429489071 436.66547714844575 L889.7247770571109 435.3465510583168 L891.5409320004393 434.01647897317014 L893.3475748452998 432.67543756592863 L895.1442969488173 431.3236001104458 L896.930712831021 429.9611366009719 L898.7064590630904 428.58821386969834 L900.4711932103289 427.2049956743016 L902.2245927436157 425.8116428239855 L903.9663540322452 424.4083132584505 L905.6961913071161 422.9951621684521 L907.413835708701 421.5723420684391 L909.1190343096006 420.1400029112806 L910.8115492205932 418.69829215725787 L912.4911566946572 417.2473548683113 L914.157646264804 415.7873337994864 L915.8108199493107 414.318369458031 L917.4504914409196 412.84060020325194 L919.076485383646 411.3541622963437 L920.6886366310503 409.85918999452787 L922.2867895910067 408.3558155947253 L923.87079755227 406.84416952223336 L925.4405220926899 405.32438037161205 L926.9958324878748 403.79657497494355 L928.5366051523906 402.2608784678155 L930.0627231431996 400.71741432207847 L931.574075647042 399.16630442234657 L933.0705575465454 397.60766909081565 L934.5520689661749 396.04162715954527 L936.0185148940448 394.46829599075375 L937.4698047825163 392.88779154525946 L938.9058522216393 391.3002283986504 L940.3265745902626 389.7057198062505 L941.7318927740774 388.1043777187666 L943.1217308770082 386.4963128280489 L944.4960159544388 384.88163461156347 L945.8546777943293 383.26045134306963 L947.1976486760383 381.6328701504343 L948.524863191148 379.9989970202431 L949.8362580380917 378.35893685331513 L951.1317718757828 376.7127934667436 L952.4113451501004 375.06066964739176 L953.674919973941 373.4026671549833 L954.9224399944102 371.7388867571766 L956.1538502730576 370.06942826396556 L957.369097202523 368.39439052779755 L958.5681283967898 366.7138714930872 L959.750892630705 365.0279681913431 L960.9173397500248 363.33677678945173 L962.067420628207 361.6403925833189 L963.2010870933638 359.9389100450969 L964.3182918995786 358.2324228155122 L965.4189886681467 356.52102375019297 L966.5031318687575 354.8048049142805 L967.5706767834592 353.0838576107509 L968.6215794761142 351.3582724084916 L969.655796787429 349.6281391354006 L970.6732863021506 347.89354692299275 L971.6740063532055 346.1545841952177 L972.6579159960067 344.4113387125424 L973.6249750178334 342.66389756001035 L974.5751439177192 340.9123471908785 L975.5083839177927 339.1567734175167 L976.4246569567003 337.3972614370396 L977.3239256850608 335.63389585685394 L978.206153480226 333.86676068463333 L979.0713044347672 332.09593937110094 L979.9193433742569 330.32151479596234 L980.7502358475358 328.54356931041434 L981.5639481448061 326.7621847225928 L982.3604472889755 324.9774423398363 L983.1397010518825 323.1894229572702 L983.9016779538797 321.39820688191014 L984.64634726385 319.6038739567259 L985.3736790139766 317.8065035485915 L986.0836439915914 316.0061745900374 L986.7762137542056 314.20296556324 L987.451360620993 312.3969545415967 L988.1090576862442 310.58821917334944 L988.7492788103108 308.77683672298934 L989.3719986313442 306.96288405453976 L989.9771925556078 305.14643767279284 L990.564836766281 303.3275737099164 L991.1349082189197 301.50636794828205 L991.6873846369491 299.6828958432691 L992.2222445177636 297.85723250939384 L992.7394671214778 296.02945276116225 L993.2390324765904 294.19963109526805 L993.7209213682571 292.3678417312997 L994.1851153424082 290.5341585936585 L994.6315966936824 288.69865535212443 L995.0603484673068 286.8614054071958 L995.4713544510676 285.0224819120839 L995.8645991676179 283.18195779467754 L996.2400678745205 281.33990574250555 L996.5977465520969 279.4963982429689 L996.9376219034455 277.65150756440073 L997.2596813425921 275.8053057961713 L997.5639129937684 273.95786482954134 L997.8503056800621 272.1092563976506 L998.11884892163 270.2595520598874 L998.3695329276466 268.4088232232214 L998.6023485890263 266.5571411635071 L998.8172874760999 264.7045770095915 L999.0143418293396 262.8512017830617 L999.1935045575364 260.99708637850034 L999.3547692296527 259.1423016031502 L999.498130073056 257.28691815704735 L999.623581966648 255.43100667261666 L999.7311204392822 253.57463769470314 L999.8207416642939 251.71788172011077 L999.892442458086 249.8608091812767 L999.9462202767818 248.00349046714516 L999.9820732140064 246.14599594403268 L999.9999999999999 244.28839593922112 L999.9999999999999 242.43076078041898 L999.9820732140064 240.57316077560782 L999.9462202767818 238.71566625249508 L999.892442458086 236.8583475383638 L999.8207416642939 235.00127499952973 L999.7311204392822 233.14451902493687 L999.623581966648 231.28815004702378 L999.4981300730562 229.4322385625934 L999.3547692296527 227.57685511649032 L999.1935045575364 225.72207034114018 L999.0143418293399 223.86795493657849 L998.8172874760999 222.01457971004902 L998.6023485890263 220.16201555613355 L998.3695329276466 218.3103334964189 L998.11884892163 216.4596046597531 L997.8503056800621 214.60990032198993 L997.5639129937687 212.76129189009924 L997.2596813425923 210.91385092346923 L996.9376219034457 209.06764915523988 L996.5977465520971 207.22275847667157 L996.2400678745207 205.37925097713514 L995.8645991676179 203.53719892496298 L995.4713544510678 201.69667480755663 L995.060348467307 199.85775131244466 L994.6315966936826 198.02050136751603 L994.1851153424082 196.184998125982 L993.7209213682572 194.3513149883408 L993.2390324765906 192.5195256243725 L992.7394671214782 190.68970395847853 L992.2222445177638 188.86192421024666 L991.6873846369489 187.03626087637102 L991.1349082189197 185.21278877135833 L990.6295932330219 183.5955508734607 L990.6066254072489 183.52312459667183 L990.5648367662815 183.39158300972426 L990.2316510648377 182.35336331822685 L990.1704304696179 182.16459629219457 L989.9771925556082 181.57271904684745 L989.8791733813231 181.2747456212943 L989.6648000464824 180.6282192083085 L989.3719986313442 179.7562726651008 L988.7492788103108 177.94231999665072 L988.1090576862442 176.13093754629105 L987.451360620993 174.32220217804374 L986.7762137542056 172.51619115640003 L986.0836439915915 170.71298212960312 L985.3736790139768 168.91265317104904 L984.64634726385 167.1152827629142 L983.9016779538799 165.3209498377303 L983.1397010518825 163.52973376236994 L982.3604472889757 161.7417143798042 L981.5639481448063 159.95697199704776 L980.750235847536 158.17558740922573 L979.9193433742573 156.39764192367824 L979.0713044347676 154.62321734853958 L978.206153480226 152.85239603500676 L977.323925685061 151.08526086278653 L976.4246569567003 149.32189528260048 L975.5083839177928 147.5623833021238 L974.5751439177194 145.806809528762 L973.6249750178339 144.05525915963005 L972.657915996007 142.30781800709806 L971.6740063532059 140.564572524423 L970.6732863021507 138.82560979664746 L969.6557967874293 137.09101758423986 L968.6215794761144 135.36088431114894 L967.5706767834597 133.63529910888948 L966.5031318687579 131.9143518053602 L965.4189886681472 130.1981329694475 L964.3182918995789 128.48673390412782 L963.2010870933644 126.78024667454412 L962.0674206282072 125.07876413632168 L960.9173397500252 123.38237993018872 L959.7508926307055 121.6911885282974 L958.5681283967901 120.00528522655324 L957.3690972025233 118.3247661918428 L956.153850273058 116.64972845567482 L954.9224399944104 114.98026996246361 L953.6749199739418 113.31648956465759 L952.4113451501008 111.65848707224873 L951.1317718757831 110.00636325289668 L949.8362580380922 108.36021986632534 L948.5248631911483 106.72015969939729 L947.1976486760387 105.0862865692062 L945.8546777943297 103.45870537657089 L944.496015954439 101.83752210807673 L943.1217308770089 100.22284389159167 L941.7318927740779 98.61477900087387 L940.3265745902628 97.01343691338961 L938.9058522216401 95.41892832099012 L937.469804782517 93.83136517438106 L936.018514894045 92.25086072888647 L934.5520689661755 90.67752956009524 L933.0705575465454 89.11148762882434 L931.5740756470426 87.5528522972939 L930.0627231432002 86.00174239756198 L928.5366051523908 84.45827825182467 L926.9958324878754 82.92258174469673 L925.44052209269 81.39477634802802 L923.8707975522706 79.87498719740715 L922.2867895910074 78.36334112491521 L920.6886366310507 76.85996672511219 L919.0764853836464 75.36499442329671 L917.4504914409205 73.87855651638878 L915.8108199493109 72.40078726160908 L914.1576462648048 70.93182292015406 L912.4911566946581 69.47180185132929 L910.8115492205937 68.02086456238246 L909.1190343096011 66.57915380835989 L907.4138357087018 65.14681465120121 L905.696191307117 63.723994551188426 L903.966354032246 62.3108434611899 L902.2245927436168 60.90751389565504 L900.4711932103289 59.51416104533845 L898.7064590630913 58.13094284994213 L896.9307128310215 56.758020118668604 L895.1442969488176 55.39555660919439 L893.3475748453004 54.043719153711784 L891.5409320004402 52.70267774647032 L889.724777057112 51.372605661323725 L887.899542948908 50.05367957119473 L886.0656880033434 48.746079643069635 L884.2236971076607 47.44998967451128 L882.374082819096 46.165597189420644 L880.5173865322184 44.89309357654493 L878.6541795796358 43.63267418709779 L876.7850643787489 42.384538473373375 L874.9106754989873 41.148890086109795 L873.0316807621465 39.92593701081352 L871.1487822523045 38.71589166462585 L869.2627173212961 37.51897101531446 L867.3742595440875 36.33539669606065 L865.4842195773579 35.16539509171229 L863.5934460068836 34.00919745497839 L861.7028260569042 32.867039977929814 L859.8132862730005 31.739163892639297 L857.9257930471747 30.62581552543502 L856.0413530962112 29.52724637663613 L854.1610137654976 28.443713154040328 L852.2858632425692 27.375477814901483 L850.4170306318705 26.322807591636934 L848.5556858429617 25.285974978842038 L846.7030393757456 24.26525773279892 L844.8603418766701 23.26093881626957 L843.028883575703 22.27330635316535 L841.2099934761151 21.30265352562221 L839.4050384067353 20.349278475936107 L837.6154218149258 19.413484149841242 L835.8425823849163 18.49557812842274 L834.0879924381708 17.595872426370565 L832.3531560759942 16.714683237173688 L830.6396071487834 15.852330668847936 L828.9489069404787 15.009138412738722 L827.2826416783148 14.185433400411569 L825.642419758346 13.381545391978333 L824.0298687971272 12.597806548841076 L822.4466324063571 11.834550937154177 L820.8943668011005 11.092114013021426 L819.3747371484493 10.370832040337064 L817.8894137461982 9.671041480402831 L816.4400680092157 8.993078337494376 L815.0283682483471 8.33727744837855 L813.6559753299633 7.703971751544516 L812.3245381431592 7.093491496094935 L811.0356889837202 6.5061634348062825 L809.7910387872569 5.942309963698372 L808.5921723189109 5.40224825077369 L807.4406432628796 4.886289321298403 L806.3379693007089 4.394737133276517 L805.2856271773247 3.9278876356835455 L804.285047762356 3.4860278063533787 L803.3376111884734 3.0694346993066994 L802.4446420305022 2.678374479064247 L801.6074046186533 2.313101477028282 L800.8270984544364 1.9738572502090181 L800.3337090992533 1.7599400661716154 L800.333704295188 1.7599379854941453 L800.3328684556976 1.759575977669999 L800.1048538156864 1.6608696745814517 L799.4417275257923 1.3743520569471557 L798.8386989652547 1.1145022943972303 L798.2966663073968 0.8815020689833097 L797.8164430394436 0.6755160999663732 L797.3987547769927 0.49669145334828235 L797.0442363878842 0.3451569123075004 L796.7534294679317 0.22102242384054474 L796.5267801613526 0.12437861605047157 L796.3646373644634 0.05529640047872647 L796.2672513072805 0.013826655483894376 L203.76524741392365 0.0 Z"/>
</g>
</g>
</g>
</g>
</svg>